<?xml version="1.0" encoding="UTF-8" standalone="no"?>
<!DOCTYPE svg PUBLIC "-//W3C//DTD SVG 1.1//EN"
 "http://www.w3.org/Graphics/SVG/1.1/DTD/svg11.dtd">
<!-- Generated by graphviz version 2.44.0 (20200408.0750)
 -->
<!-- Title: dependency&#45;cruiser output Pages: 1 -->
<svg width="545pt" height="218pt"
 viewBox="0.00 0.00 544.54 218.00" xmlns="http://www.w3.org/2000/svg" xmlns:xlink="http://www.w3.org/1999/xlink">
<g id="graph0" class="graph" transform="scale(1 1) rotate(0) translate(4 214)">
<title>dependency&#45;cruiser output</title>
<polygon fill="white" stroke="transparent" points="-4,4 -4,-214 540.54,-214 540.54,4 -4,4"/>
<g id="clust1" class="cluster">
<title>cluster_client</title>
<path fill="#ffffff" stroke="black" stroke-width="2" d="M20,-8C20,-8 516.54,-8 516.54,-8 522.54,-8 528.54,-14 528.54,-20 528.54,-20 528.54,-190 528.54,-190 528.54,-196 522.54,-202 516.54,-202 516.54,-202 20,-202 20,-202 14,-202 8,-196 8,-190 8,-190 8,-20 8,-20 8,-14 14,-8 20,-8"/>
<text text-anchor="middle" x="268.27" y="-189.9" font-family="Helvetica,sans-Serif" font-weight="bold" font-size="9.00">client</text>
</g>
<g id="clust2" class="cluster">
<title>cluster_client/src</title>
<path fill="#ffffff" stroke="black" stroke-width="2" d="M28,-16C28,-16 446.54,-16 446.54,-16 452.54,-16 458.54,-22 458.54,-28 458.54,-28 458.54,-163 458.54,-163 458.54,-169 452.54,-175 446.54,-175 446.54,-175 28,-175 28,-175 22,-175 16,-169 16,-163 16,-163 16,-28 16,-28 16,-22 22,-16 28,-16"/>
<text text-anchor="middle" x="237.27" y="-162.9" font-family="Helvetica,sans-Serif" font-weight="bold" font-size="9.00">src</text>
</g>
<g id="clust3" class="cluster">
<title>cluster_client/src/business&#45;logic</title>
<path fill="#ffffff" stroke="black" stroke-width="2" d="M280.52,-95C280.52,-95 360.54,-95 360.54,-95 366.54,-95 372.54,-101 372.54,-107 372.54,-107 372.54,-136 372.54,-136 372.54,-142 366.54,-148 360.54,-148 360.54,-148 280.52,-148 280.52,-148 274.52,-148 268.52,-142 268.52,-136 268.52,-136 268.52,-107 268.52,-107 268.52,-101 274.52,-95 280.52,-95"/>
<text text-anchor="middle" x="320.53" y="-135.9" font-family="Helvetica,sans-Serif" font-weight="bold" font-size="9.00">business&#45;logic</text>
</g>
<g id="clust4" class="cluster">
<title>cluster_client/src/components</title>
<path fill="#ffffff" stroke="black" stroke-width="2" d="M297.53,-34C297.53,-34 343.53,-34 343.53,-34 349.53,-34 355.53,-40 355.53,-46 355.53,-46 355.53,-75 355.53,-75 355.53,-81 349.53,-87 343.53,-87 343.53,-87 297.53,-87 297.53,-87 291.53,-87 285.53,-81 285.53,-75 285.53,-75 285.53,-46 285.53,-46 285.53,-40 291.53,-34 297.53,-34"/>
<text text-anchor="middle" x="320.53" y="-74.9" font-family="Helvetica,sans-Serif" font-weight="bold" font-size="9.00">components</text>
</g>
<g id="clust5" class="cluster">
<title>cluster_client/src/data&#45;access</title>
<path fill="#ffffff" stroke="black" stroke-width="2" d="M392.54,-64C392.54,-64 438.54,-64 438.54,-64 444.54,-64 450.54,-70 450.54,-76 450.54,-76 450.54,-136 450.54,-136 450.54,-142 444.54,-148 438.54,-148 438.54,-148 392.54,-148 392.54,-148 386.54,-148 380.54,-142 380.54,-136 380.54,-136 380.54,-76 380.54,-76 380.54,-70 386.54,-64 392.54,-64"/>
<text text-anchor="middle" x="415.54" y="-135.9" font-family="Helvetica,sans-Serif" font-weight="bold" font-size="9.00">data&#45;access</text>
</g>
<g id="clust6" class="cluster">
<title>cluster_client/src/handlers</title>
<path fill="#ffffff" stroke="black" stroke-width="2" d="M194.51,-90C194.51,-90 248.52,-90 248.52,-90 254.52,-90 260.52,-96 260.52,-102 260.52,-102 260.52,-131 260.52,-131 260.52,-137 254.52,-143 248.52,-143 248.52,-143 194.51,-143 194.51,-143 188.51,-143 182.51,-137 182.51,-131 182.51,-131 182.51,-102 182.51,-102 182.51,-96 188.51,-90 194.51,-90"/>
<text text-anchor="middle" x="221.51" y="-130.9" font-family="Helvetica,sans-Serif" font-weight="bold" font-size="9.00">handlers</text>
</g>
<g id="clust7" class="cluster">
<title>cluster_client/src/init</title>
<path fill="#ffffff" stroke="black" stroke-width="2" d="M36,-29C36,-29 157.25,-29 157.25,-29 163.25,-29 169.25,-35 169.25,-41 169.25,-41 169.25,-70 169.25,-70 169.25,-76 163.25,-82 157.25,-82 157.25,-82 36,-82 36,-82 30,-82 24,-76 24,-70 24,-70 24,-41 24,-41 24,-35 30,-29 36,-29"/>
<text text-anchor="middle" x="96.63" y="-69.9" font-family="Helvetica,sans-Serif" font-weight="bold" font-size="9.00">init</text>
</g>
<g id="clust8" class="cluster">
<title>cluster_client/src/listeners</title>
<path fill="#ffffff" stroke="black" stroke-width="2" d="M106,-90C106,-90 162.51,-90 162.51,-90 168.51,-90 174.51,-96 174.51,-102 174.51,-102 174.51,-131 174.51,-131 174.51,-137 168.51,-143 162.51,-143 162.51,-143 106,-143 106,-143 100,-143 94,-137 94,-131 94,-131 94,-102 94,-102 94,-96 100,-90 106,-90"/>
<text text-anchor="middle" x="134.25" y="-130.9" font-family="Helvetica,sans-Serif" font-weight="bold" font-size="9.00">listeners</text>
</g>
<!-- client/data.js -->
<g id="node1" class="node">
<title>client/data.js</title>
<g id="a_node1"><a xlink:href="../client/data.js" xlink:title="data.js">
<path fill="#ffffcc" stroke="black" d="M514.34,-105.3C514.34,-105.3 472.74,-105.3 472.74,-105.3 469.64,-105.3 466.54,-102.2 466.54,-99.1 466.54,-99.1 466.54,-92.9 466.54,-92.9 466.54,-89.8 469.64,-86.7 472.74,-86.7 472.74,-86.7 514.34,-86.7 514.34,-86.7 517.44,-86.7 520.54,-89.8 520.54,-92.9 520.54,-92.9 520.54,-99.1 520.54,-99.1 520.54,-102.2 517.44,-105.3 514.34,-105.3"/>
<text text-anchor="middle" x="493.54" y="-93.3" font-family="Helvetica,sans-Serif" font-size="9.00">data.js</text>
</a>
</g>
</g>
<!-- client/src/business&#45;logic/update&#45;greeting.js -->
<g id="node2" class="node">
<title>client/src/business&#45;logic/update&#45;greeting.js</title>
<g id="a_node2"><a xlink:href="../client/src/business-logic/update-greeting.js" xlink:title="update&#45;greeting.js">
<path fill="#ffffcc" stroke="black" d="M358.35,-121.3C358.35,-121.3 282.71,-121.3 282.71,-121.3 279.61,-121.3 276.51,-118.2 276.51,-115.1 276.51,-115.1 276.51,-108.9 276.51,-108.9 276.51,-105.8 279.61,-102.7 282.71,-102.7 282.71,-102.7 358.35,-102.7 358.35,-102.7 361.45,-102.7 364.55,-105.8 364.55,-108.9 364.55,-108.9 364.55,-115.1 364.55,-115.1 364.55,-118.2 361.45,-121.3 358.35,-121.3"/>
<text text-anchor="middle" x="320.53" y="-109.3" font-family="Helvetica,sans-Serif" font-size="9.00">update&#45;greeting.js</text>
</a>
</g>
</g>
<!-- client/src/data&#45;access/read.js -->
<g id="node3" class="node">
<title>client/src/data&#45;access/read.js</title>
<g id="a_node3"><a xlink:href="../client/src/data-access/read.js" xlink:title="read.js">
<path fill="#ffffcc" stroke="black" d="M436.34,-90.3C436.34,-90.3 394.74,-90.3 394.74,-90.3 391.64,-90.3 388.54,-87.2 388.54,-84.1 388.54,-84.1 388.54,-77.9 388.54,-77.9 388.54,-74.8 391.64,-71.7 394.74,-71.7 394.74,-71.7 436.34,-71.7 436.34,-71.7 439.44,-71.7 442.54,-74.8 442.54,-77.9 442.54,-77.9 442.54,-84.1 442.54,-84.1 442.54,-87.2 439.44,-90.3 436.34,-90.3"/>
<text text-anchor="middle" x="415.54" y="-78.3" font-family="Helvetica,sans-Serif" font-size="9.00">read.js</text>
</a>
</g>
</g>
<!-- client/src/business&#45;logic/update&#45;greeting.js&#45;&gt;client/src/data&#45;access/read.js -->
<g id="edge1" class="edge">
<title>client/src/business&#45;logic/update&#45;greeting.js&#45;&gt;client/src/data&#45;access/read.js</title>
<path fill="none" stroke="#000000" stroke-width="2" stroke-opacity="0.200000" d="M349.69,-102.61C360.06,-99.16 371.89,-95.21 382.58,-91.65"/>
<polygon fill="#000000" fill-opacity="0.200000" stroke="#000000" stroke-width="2" stroke-opacity="0.200000" points="383.35,-93.61 388.38,-89.72 382.02,-89.62 383.35,-93.61"/>
</g>
<!-- client/src/data&#45;access/write.js -->
<g id="node4" class="node">
<title>client/src/data&#45;access/write.js</title>
<g id="a_node4"><a xlink:href="../client/src/data-access/write.js" xlink:title="write.js">
<path fill="#ffffcc" stroke="black" d="M436.34,-121.3C436.34,-121.3 394.74,-121.3 394.74,-121.3 391.64,-121.3 388.54,-118.2 388.54,-115.1 388.54,-115.1 388.54,-108.9 388.54,-108.9 388.54,-105.8 391.64,-102.7 394.74,-102.7 394.74,-102.7 436.34,-102.7 436.34,-102.7 439.44,-102.7 442.54,-105.8 442.54,-108.9 442.54,-108.9 442.54,-115.1 442.54,-115.1 442.54,-118.2 439.44,-121.3 436.34,-121.3"/>
<text text-anchor="middle" x="415.54" y="-109.3" font-family="Helvetica,sans-Serif" font-size="9.00">write.js</text>
</a>
</g>
</g>
<!-- client/src/business&#45;logic/update&#45;greeting.js&#45;&gt;client/src/data&#45;access/write.js -->
<g id="edge2" class="edge">
<title>client/src/business&#45;logic/update&#45;greeting.js&#45;&gt;client/src/data&#45;access/write.js</title>
<path fill="none" stroke="#000000" stroke-width="2" stroke-opacity="0.200000" d="M364.77,-112C370.69,-112 376.68,-112 382.36,-112"/>
<polygon fill="#000000" fill-opacity="0.200000" stroke="#000000" stroke-width="2" stroke-opacity="0.200000" points="382.38,-114.1 388.38,-112 382.38,-109.9 382.38,-114.1"/>
</g>
<!-- client/src/data&#45;access/read.js&#45;&gt;client/data.js -->
<g id="edge3" class="edge">
<title>client/src/data&#45;access/read.js&#45;&gt;client/data.js</title>
<path fill="none" stroke="#000000" stroke-width="2" stroke-opacity="0.200000" d="M442.69,-86.16C448.31,-87.27 454.3,-88.45 460.12,-89.6"/>
<polygon fill="#000000" fill-opacity="0.200000" stroke="#000000" stroke-width="2" stroke-opacity="0.200000" points="460.04,-91.73 466.33,-90.83 460.85,-87.61 460.04,-91.73"/>
</g>
<!-- client/src/data&#45;access/write.js&#45;&gt;client/data.js -->
<g id="edge4" class="edge">
<title>client/src/data&#45;access/write.js&#45;&gt;client/data.js</title>
<path fill="none" stroke="#000000" stroke-width="2" stroke-opacity="0.200000" d="M442.69,-106.49C448.31,-105.31 454.3,-104.05 460.12,-102.83"/>
<polygon fill="#000000" fill-opacity="0.200000" stroke="#000000" stroke-width="2" stroke-opacity="0.200000" points="460.9,-104.81 466.33,-101.52 460.03,-100.7 460.9,-104.81"/>
</g>
<!-- client/src/components/header.js -->
<g id="node5" class="node">
<title>client/src/components/header.js</title>
<g id="a_node5"><a xlink:href="../client/src/components/header.js" xlink:title="header.js">
<path fill="#ffffcc" stroke="black" d="M341.33,-60.3C341.33,-60.3 299.73,-60.3 299.73,-60.3 296.63,-60.3 293.53,-57.2 293.53,-54.1 293.53,-54.1 293.53,-47.9 293.53,-47.9 293.53,-44.8 296.63,-41.7 299.73,-41.7 299.73,-41.7 341.33,-41.7 341.33,-41.7 344.43,-41.7 347.53,-44.8 347.53,-47.9 347.53,-47.9 347.53,-54.1 347.53,-54.1 347.53,-57.2 344.43,-60.3 341.33,-60.3"/>
<text text-anchor="middle" x="320.53" y="-48.3" font-family="Helvetica,sans-Serif" font-size="9.00">header.js</text>
</a>
</g>
</g>
<!-- client/src/handlers/use&#45;input.js -->
<g id="node6" class="node">
<title>client/src/handlers/use&#45;input.js</title>
<g id="a_node6"><a xlink:href="../client/src/handlers/use-input.js" xlink:title="use&#45;input.js">
<path fill="#ffffcc" stroke="black" d="M246.32,-116.3C246.32,-116.3 196.71,-116.3 196.71,-116.3 193.61,-116.3 190.51,-113.2 190.51,-110.1 190.51,-110.1 190.51,-103.9 190.51,-103.9 190.51,-100.8 193.61,-97.7 196.71,-97.7 196.71,-97.7 246.32,-97.7 246.32,-97.7 249.42,-97.7 252.52,-100.8 252.52,-103.9 252.52,-103.9 252.52,-110.1 252.52,-110.1 252.52,-113.2 249.42,-116.3 246.32,-116.3"/>
<text text-anchor="middle" x="221.51" y="-104.3" font-family="Helvetica,sans-Serif" font-size="9.00">use&#45;input.js</text>
</a>
</g>
</g>
<!-- client/src/handlers/use&#45;input.js&#45;&gt;client/src/business&#45;logic/update&#45;greeting.js -->
<g id="edge5" class="edge">
<title>client/src/handlers/use&#45;input.js&#45;&gt;client/src/business&#45;logic/update&#45;greeting.js</title>
<path fill="none" stroke="#000000" stroke-width="2" stroke-opacity="0.200000" d="M252.68,-108.55C258.15,-108.84 263.99,-109.14 269.85,-109.44"/>
<polygon fill="#000000" fill-opacity="0.200000" stroke="#000000" stroke-width="2" stroke-opacity="0.200000" points="270.1,-111.56 276.21,-109.77 270.32,-107.36 270.1,-111.56"/>
</g>
<!-- client/src/handlers/use&#45;input.js&#45;&gt;client/src/components/header.js -->
<g id="edge6" class="edge">
<title>client/src/handlers/use&#45;input.js&#45;&gt;client/src/components/header.js</title>
<path fill="none" stroke="#000000" stroke-width="2" stroke-opacity="0.200000" d="M238.97,-97.5C255.24,-88.11 280.2,-73.7 298.03,-63.41"/>
<polygon fill="#000000" fill-opacity="0.200000" stroke="#000000" stroke-width="2" stroke-opacity="0.200000" points="299.17,-65.18 303.31,-60.36 297.07,-61.54 299.17,-65.18"/>
</g>
<!-- client/src/init/index.js -->
<g id="node7" class="node">
<title>client/src/init/index.js</title>
<g id="a_node7"><a xlink:href="../client/src/init/index.js" xlink:title="index.js">
<path fill="#ffffcc" stroke="black" d="M79.8,-55.3C79.8,-55.3 38.2,-55.3 38.2,-55.3 35.1,-55.3 32,-52.2 32,-49.1 32,-49.1 32,-42.9 32,-42.9 32,-39.8 35.1,-36.7 38.2,-36.7 38.2,-36.7 79.8,-36.7 79.8,-36.7 82.9,-36.7 86,-39.8 86,-42.9 86,-42.9 86,-49.1 86,-49.1 86,-52.2 82.9,-55.3 79.8,-55.3"/>
<text text-anchor="middle" x="59" y="-43.3" font-family="Helvetica,sans-Serif" font-size="9.00">index.js</text>
</a>
</g>
</g>
<!-- client/src/listeners/input&#45;type.js -->
<g id="node8" class="node">
<title>client/src/listeners/input&#45;type.js</title>
<g id="a_node8"><a xlink:href="../client/src/listeners/input-type.js" xlink:title="input&#45;type.js">
<path fill="#ffffcc" stroke="black" d="M160.06,-116.3C160.06,-116.3 108.44,-116.3 108.44,-116.3 105.34,-116.3 102.24,-113.2 102.24,-110.1 102.24,-110.1 102.24,-103.9 102.24,-103.9 102.24,-100.8 105.34,-97.7 108.44,-97.7 108.44,-97.7 160.06,-97.7 160.06,-97.7 163.17,-97.7 166.27,-100.8 166.27,-103.9 166.27,-103.9 166.27,-110.1 166.27,-110.1 166.27,-113.2 163.17,-116.3 160.06,-116.3"/>
<text text-anchor="middle" x="134.25" y="-104.3" font-family="Helvetica,sans-Serif" font-size="9.00">input&#45;type.js</text>
</a>
</g>
</g>
<!-- client/src/init/index.js&#45;&gt;client/src/listeners/input&#45;type.js -->
<g id="edge7" class="edge">
<title>client/src/init/index.js&#45;&gt;client/src/listeners/input&#45;type.js</title>
<path fill="none" stroke="#000000" stroke-width="2" stroke-opacity="0.200000" d="M66.78,-55.49C73.14,-63.94 83.26,-76.28 94,-85 98.18,-88.4 102.96,-91.56 107.71,-94.37"/>
<polygon fill="#000000" fill-opacity="0.200000" stroke="#000000" stroke-width="2" stroke-opacity="0.200000" points="106.99,-96.37 113.24,-97.5 109.05,-92.72 106.99,-96.37"/>
</g>
<!-- client/src/init/ui.js -->
<g id="node9" class="node">
<title>client/src/init/ui.js</title>
<g id="a_node9"><a xlink:href="../client/src/init/ui.js" xlink:title="ui.js">
<path fill="#ffffcc" stroke="black" d="M155.05,-55.3C155.05,-55.3 113.46,-55.3 113.46,-55.3 110.35,-55.3 107.25,-52.2 107.25,-49.1 107.25,-49.1 107.25,-42.9 107.25,-42.9 107.25,-39.8 110.35,-36.7 113.46,-36.7 113.46,-36.7 155.05,-36.7 155.05,-36.7 158.15,-36.7 161.25,-39.8 161.25,-42.9 161.25,-42.9 161.25,-49.1 161.25,-49.1 161.25,-52.2 158.15,-55.3 155.05,-55.3"/>
<text text-anchor="middle" x="134.25" y="-43.3" font-family="Helvetica,sans-Serif" font-size="9.00">ui.js</text>
</a>
</g>
</g>
<!-- client/src/init/index.js&#45;&gt;client/src/init/ui.js -->
<g id="edge8" class="edge">
<title>client/src/init/index.js&#45;&gt;client/src/init/ui.js</title>
<path fill="none" stroke="#000000" stroke-width="2" stroke-opacity="0.200000" d="M86.03,-46C90.78,-46 95.78,-46 100.68,-46"/>
<polygon fill="#000000" fill-opacity="0.200000" stroke="#000000" stroke-width="2" stroke-opacity="0.200000" points="100.81,-48.1 106.81,-46 100.81,-43.9 100.81,-48.1"/>
</g>
<!-- client/src/listeners/input&#45;type.js&#45;&gt;client/src/handlers/use&#45;input.js -->
<g id="edge11" class="edge">
<title>client/src/listeners/input&#45;type.js&#45;&gt;client/src/handlers/use&#45;input.js</title>
<path fill="none" stroke="#000000" stroke-width="2" stroke-opacity="0.200000" d="M166.52,-107C172.24,-107 178.26,-107 184.12,-107"/>
<polygon fill="#000000" fill-opacity="0.200000" stroke="#000000" stroke-width="2" stroke-opacity="0.200000" points="184.39,-109.1 190.39,-107 184.39,-104.9 184.39,-109.1"/>
</g>
<!-- client/src/init/ui.js&#45;&gt;client/src/data&#45;access/read.js -->
<g id="edge10" class="edge">
<title>client/src/init/ui.js&#45;&gt;client/src/data&#45;access/read.js</title>
<path fill="none" stroke="#000000" stroke-width="2" stroke-opacity="0.200000" d="M160.98,-36.68C206.19,-21.93 301.82,1.95 372.54,-31 387.9,-38.16 399.65,-54.01 406.76,-65.96"/>
<polygon fill="#000000" fill-opacity="0.200000" stroke="#000000" stroke-width="2" stroke-opacity="0.200000" points="405.09,-67.28 409.87,-71.46 408.74,-65.21 405.09,-67.28"/>
</g>
<!-- client/src/init/ui.js&#45;&gt;client/src/components/header.js -->
<g id="edge9" class="edge">
<title>client/src/init/ui.js&#45;&gt;client/src/components/header.js</title>
<path fill="none" stroke="#000000" stroke-width="2" stroke-opacity="0.200000" d="M161.27,-46.71C194.23,-47.6 251.08,-49.14 286.91,-50.12"/>
<polygon fill="#000000" fill-opacity="0.200000" stroke="#000000" stroke-width="2" stroke-opacity="0.200000" points="287.3,-52.23 293.35,-50.29 287.41,-48.03 287.3,-52.23"/>
</g>
</g>
</svg>
